# AST/ASF file generated using VICON BodyLanguage
# -----------------------------------------------
:version 1.10
:name VICON
:units
  mass 1.0
  length 0.45
  angle deg
:documentation
   .ast/.asf automatically generated from VICON data using
   VICON BodyBuilder and BodyLanguage model FoxedUp or BRILLIANT.MOD
:root
   order TX TY TZ RX RY RZ
   axis XYZ
   position 0 0 0  
   orientation 0 0 0 
:bonedata
  begin
     id 1 
     name lhipjoint
     direction 0.682418 -0.694059 0.22932 
     length 2.25561 
     axis 0 0 0  XYZ
  end
  begin
     id 2 
     name lfemur
     direction 0.34202 -0.939693 0  
     length 6.96448  
     axis 0 0 20  XYZ
    dof rx ry rz
    limits (-160.0 20.0)
           (-70.0 70.0)
           (-60.0 70.0)
  end
  begin
     id 3 
     name ltibia
     direction 0.34202 -0.939693 0   
     length 6.88553   
     axis 0 0 20   XYZ
    dof rx
    limits (-10.0 170.0)
  end
  begin
     id 4 
     name lfoot
     direction 0.0723587 -0.198804 0.977364   
     length 1.88518   
     axis -90 7.62852e-016 20   XYZ
    dof rx rz
    limits (-45.0 90.0)
           (-70.0 20.0)
  end
  begin
     id 5 
     name ltoes
     direction 1.53558e-011 -4.21962e-011 1   
     length 0.952124   
     axis -90 7.62852e-016 20   XYZ
    dof rx
    limits (-90.0 20.0)
  end
  begin
     id 6 
     name rhipjoint
     direction -0.657603 -0.71533 0.236348   
     length 2.18854  
     axis 0 0 0  XYZ 
  end
  begin
     id 7 
     name rfemur
     direction -0.34202 -0.939693 0   
     length 6.86686   
     axis 0 0 -20   XYZ
    dof rx ry rz
    limits (-160.0 20.0)
           (-70.0 70.0)
           (-70.0 60.0)
  end
  begin
     id 8 
     name rtibia
     direction -0.34202 -0.939693 0   
     length 6.59503   
     axis 0 0 -20   XYZ
    dof rx
    limits (-10.0 170.0)
 end
 begin
     id 9 
     name rfoot
     direction -0.101977 -0.280179 0.954516   
     length 1.93723  
     axis -90 -7.62852e-016 -20   XYZ
    dof rx rz
    limits (-45.0 90.0)
           (-20.0 70.0)
  end
  begin
     id 10 
     name rtoes
     direction -1.53564e-011 -4.21897e-011 1   
     length 0.970315   
     axis -90 -7.62852e-016 -20   XYZ
    dof rx
    limits (-90.0 20.0)
  end
  begin
     id 11 
     name lowerback
     direction -0.0339559 0.999421 -0.00235966   
     length 1.88543   
     axis 0 0 0   XYZ
    dof rx ry rz
    limits (-20.0 45.0)
           (-30.0 30.0)
           (-30.0 30.0)
  end
  begin
     id 12 
     name upperback
     direction 0.00401003 0.999739 0.0224689   
     length 1.8856   
     axis 0 0 0   XYZ
    dof rx ry rz
    limits (-20.0 45.0)
           (-30.0 30.0)
           (-30.0 30.0)
  end
  begin
     id 13 
     name thorax
     direction 0.0198619 0.999546 0.0226536   
     length 1.88352   
     axis 0 0 0   XYZ
    dof rx ry rz
    limits (-20.0 45.0)
           (-30.0 30.0)
           (-30.0 30.0)
  end
  begin
     id 14 
     name lowerneck
     direction -0.0461848 0.998632 0.0245198   
     length 1.34895   
     axis 0 0 0   XYZ
    dof rx ry rz
    limits (-20.0 45.0)
           (-30.0 30.0)
           (-30.0 30.0)
  end
  begin
     id 15 
     name upperneck
     direction -0.0180627 0.994724 -0.100984   
     length 1.35214   
     axis 0 0 0   XYZ
    dof rx ry rz
    limits (-20.0 45.0)
           (-30.0 30.0)
           (-30.0 30.0)
  end
  begin
     id 16
     name head
     direction -0.00374772 0.999293 -0.037403  
     length 1.3568  
     axis 0 0 0   XYZ
    dof rx ry rz
    limits (-20.0 45.0)
           (-30.0 30.0)
           (-30.0 30.0)
  end
  begin
     id 17 
     name lclavicle
     direction 0.971773 0.191119 0.138311  
     length 2.84954  
     axis 0 0 0   XYZ
    dof ry rz
    limits (-20.0 10.0)
           (0.0 20.0)
  end
  begin
     id 18 
     name lhumerus
     direction 1 -4.4897e-011 -2.43761e-027   
     length 4.40919   
     axis 180 -30 -90   XYZ
    dof rx ry rz
    limits (-60.0 90.0)
           (-90.0 90.0)
           (-90.0 90.0)
  end
  begin
     id 19
     name lradius
     direction 1 -4.4896e-011 -9.1621e-027   
     length 3.03857   
     axis 180 -30 -90   XYZ
    dof rx
    limits (-10.0 170.0)
  end
  begin
     id 20
     name lwrist
     direction 1 -4.4896e-011 -1.41363e-026   
     length 1.51928   
     axis 1.07133e-014 90 90   XYZ
    dof ry
    limits (-180.0 0.0)
 end
  begin
     id 21 
     name lhand
     direction 1 -4.48978e-011 -2.82725e-026   
     length 0.523208   
     axis 1.80403e-014 90 90   XYZ
    dof rx rz
    limits (-90.0 90.0)
           (-45.0 45.0)
  end
  begin
     id 22 
     name lfingers
     direction 1 -4.48977e-011 -5.6545e-026   
     length 0.421824   
     axis 3.60806e-014 90 90   XYZ
    dof rx
    limits (0.0 90.0)
  end
  begin
     id 23
     name lthumb
     direction 0.707107 -6.34962e-011 0.707107   
     length 0.605657   
     axis -90 45 2.85299e-015   XYZ
    dof rx rz
    limits (-45.0 45.0)
           (-45.0 45.0)
  end
  begin
     id 24 
     name rclavicle
     direction -0.957247 0.24311 0.156766   
     length 3.12406  
     axis 0 0 0   XYZ 
    dof ry rz
    limits (-10.0 20.0)
           (-20.0 0.0)
  end
  begin
     id 25 
     name rhumerus
     direction -1 -4.48964e-011 -1.70632e-027  
     length 4.61969   
     axis 180 30 90   XYZ
    dof rx ry rz
    limits (-90.0 60.0)
           (-90.0 90.0)
           (-90.0 90.0)
  end
  begin
     id 26 
     name rradius
     direction -1 -4.48966e-011 -6.60395e-027   
     length 3.09382   
     axis 180 30 90   XYZ
    dof rx
    limits (-10.0 170.0)
  end
  begin
     id 27 
     name rwrist
     direction -1 -4.48963e-011 -1.41363e-026   
     length 1.54691   
     axis 1.07133e-014 -90 -90   XYZ
    dof ry
    limits (-180.0 0.0)
  end
  begin
     id 28
     name rhand
     direction -1 -4.49013e-011 -2.82725e-026   
     length 0.500896   
     axis 1.80403e-014 -90 -90   XYZ
    dof rx rz
    limits (-90.0 90.0)
           (-45.0 45.0)
  end
  begin
     id 29
     name rfingers
     direction -1 -4.48902e-011 -5.6545e-026   
     length 0.403835   
     axis 3.60806e-014 -90 -90   XYZ
    dof rx
    limits (0.0 90.0)
  end
  begin
     id 30
     name rthumb
     direction -0.707107 -6.34953e-011 0.707107   
     length 0.579829   
     axis -90 -45 -2.85299e-015   XYZ
    dof rx rz
    limits (-45.0 45.0)
           (-45.0 45.0)
  end
:hierarchy
  begin
    root lhipjoint rhipjoint lowerback
    lhipjoint lfemur
    lfemur ltibia
    ltibia lfoot
    lfoot ltoes
    rhipjoint rfemur
    rfemur rtibia
    rtibia rfoot
    rfoot rtoes
    lowerback upperback
    upperback thorax
    thorax lowerneck lclavicle rclavicle
    lowerneck upperneck
    upperneck head
    lclavicle lhumerus
    lhumerus lradius
    lradius lwrist
    lwrist lhand lthumb
    lhand lfingers
    rclavicle rhumerus
    rhumerus rradius
    rradius rwrist
    rwrist rhand rthumb
    rhand rfingers
  end

#!OML:ASF E:\madness\Project 1\Capture day 1\Session 1\Female1.ASF
:FULLY-SPECIFIED
:DEGREES
436
root 32.3294 16.0079 1.08096 -342.064 -77.6683 350.91
lowerback 0.0910437 -4.37196 -7.82732
upperback -3.933 -5.97574 5.24336
thorax -2.81535 -2.74413 10.0543
lowerneck -0.316854 -14.8084 -8.85673
upperneck 6.39248 -19.5126 -4.37068
head 2.51864 -10.0636 -0.513071
rclavicle -6.94131e-014 3.4191e-014
rhumerus -65.5915 31.1029 -68.9548
rradius 69.3289
rwrist -2.73311
rhand -5.7854 -43.4156
rfingers 7.12502
rthumb 20.0386 -72.4023
lclavicle -6.94131e-014 3.4191e-014
lhumerus -69.5325 -24.1944 64.5101
lradius 100.817
lwrist -10.7436
lhand -7.62532 -17.1465
lfingers 7.12502
lthumb 18.2693 12.0156
rfemur -17.9912 0.36027 24.162
rtibia 28.4344
rfoot -17.8513 -24.7184
rtoes -2.2074
lfemur -33.4026 -5.31382 -13.5506
ltibia 43.1281
lfoot -9.89703 8.02977
ltoes 13.7314
437
root 32.3098 16.0112 1.09893 -342.432 -77.4272 351.222
lowerback 0.206854 -4.23437 -7.7616
upperback -3.90061 -5.79501 5.20511
thorax -2.89723 -2.65046 9.98745
lowerneck -0.989028 -14.443 -8.3864
upperneck 6.41435 -18.942 -4.88339
head 2.52724 -9.78965 -0.752271
rclavicle 3.46755e-014 0
rhumerus -65.7841 30.281 -68.144
rradius 70.2024
rwrist -2.90597
rhand -6.57304 -42.8849
rfingers 7.12502
rthumb 19.2814 -71.949
lclavicle 3.46755e-014 0
lhumerus -69.1308 -24.3157 64.3862
lradius 101.408
lwrist -11.2898
lhand -7.80739 -17.1049
lfingers 7.12502
lthumb 18.0942 12.0735
rfemur -17.7853 0.246897 24.1156
rtibia 28.3942
rfoot -17.981 -24.8949
rtoes -2.3387
lfemur -33.1967 -5.68876 -13.5106
ltibia 42.0793
lfoot -9.25602 8.22692
ltoes 13.8451
438
root 32.2893 16.01 1.11984 -342.98 -77.3144 351.798
lowerback 0.314603 -4.04568 -7.69376
upperback -3.91585 -5.5465 5.08753
thorax -3.04726 -2.51754 9.835
lowerneck -1.95564 -13.9569 -7.87517
upperneck 6.7648 -18.169 -5.42939
head 2.69993 -9.43152 -1.04625
rclavicle -7.18234e-014 7.95139e-015
rhumerus -66.1191 29.3796 -67.4457
rradius 71.0751
rwrist -3.27965
rhand -7.77056 -41.9824
rfingers 7.12502
rthumb 18.1296 -71.1575
lclavicle -7.18234e-014 7.95139e-015
lhumerus -68.7362 -24.5998 64.2526
lradius 101.991
lwrist -11.2637
lhand -8.43557 -16.8317
lfingers 7.12502
lthumb 17.4897 12.4016
rfemur -17.6781 0.366401 23.9287
rtibia 28.3795
rfoot -18.1007 -25.1295
rtoes -2.57738
lfemur -32.9994 -6.10689 -13.5368
ltibia 40.9659
lfoot -9.07182 8.00409
ltoes 15.5562
439
root 32.2691 16.0091 1.14179 -343.369 -77.2907 352.207
lowerback 0.318941 -3.78755 -7.5524
upperback -3.87608 -5.19569 4.89066
thorax -3.11398 -2.34239 9.5404
lowerneck -2.63852 -13.4625 -7.38811
upperneck 6.97393 -17.4321 -5.71902
head 2.81253 -9.07639 -1.23309
rclavicle -6.41453e-014 9.54166e-015
rhumerus -66.5486 28.3026 -66.7779
rradius 72.0426
rwrist -3.67987
rhand -8.63402 -41.5715
rfingers 7.12502
rthumb 17.2987 -70.8217
lclavicle -6.41453e-014 9.54166e-015
lhumerus -68.0955 -24.9938 63.7361
lradius 102.675
lwrist -11.7826
lhand -8.13589 -16.7027
lfingers 7.12502
lthumb 17.7781 12.5046
rfemur -17.5707 0.505131 23.7506
rtibia 28.39
rfoot -18.1534 -25.2975
rtoes -2.86502
lfemur -32.8007 -6.58173 -13.5068
ltibia 39.9134
lfoot -9.10141 7.64549
ltoes 16.9713
440
root 32.2483 16.0062 1.16736 -343.979 -76.8988 352.775
lowerback 0.299495 -3.67751 -7.34513
upperback -3.7849 -5.03919 4.7409
thorax -3.06835 -2.27502 9.25138
lowerneck -2.41209 -12.8335 -7.19257
upperneck 6.37735 -16.6497 -5.5625
head 2.55893 -8.65416 -1.12526
rclavicle 2.86001e-014 2.18663e-014
rhumerus -66.8722 27.3264 -65.9965
rradius 73.0328
rwrist -3.77127
rhand -8.6061 -42.2083
rfingers 7.12502
rthumb 17.3256 -71.4561
lclavicle 2.86001e-014 2.18663e-014
lhumerus -67.5297 -25.2834 63.4373
lradius 103.284
lwrist -12.0473
lhand -8.24081 -16.5999
lfingers 7.12502
lthumb 17.6771 12.6166
rfemur -17.3515 0.401162 23.6364
rtibia 28.4146
rfoot -18.4183 -25.5369
rtoes -2.57905
lfemur -32.5906 -7.29905 -13.4403
ltibia 38.9947
lfoot -8.95434 7.77089
ltoes 15.6337
441
root 32.2271 16.0022 1.1966 -343.981 -76.9779 352.907
lowerback 0.0877117 -3.4849 -7.12658
upperback -3.82707 -4.76551 4.64271
thorax -3.07397 -2.14295 9.00579
lowerneck -2.86071 -12.0065 -6.89527
upperneck 6.37488 -15.4995 -5.88846
head 2.57915 -8.09274 -1.25226
rclavicle -1.13183e-014 -4.37326e-015
rhumerus -67.3546 26.696 -65.349
rradius 73.8559
rwrist -3.98011
rhand -8.79602 -42.5281
rfingers 7.12502
rthumb 17.1428 -71.7918
lclavicle -1.13183e-014 -4.37326e-015
lhumerus -67.3282 -25.4438 63.3632
lradius 103.817
lwrist -12.1938
lhand -8.46398 -16.4512
lfingers 7.12502
lthumb 17.4624 12.7845
rfemur -17.4145 0.417237 23.4734
rtibia 28.4727
rfoot -18.3022 -25.4556
rtoes -3.47018
lfemur -32.4727 -7.70179 -13.3753
ltibia 38.2785
lfoot -8.63933 8.62856
ltoes 11.9941
